<svg width="36" height="37" viewBox="0 0 36 37" fill="none" xmlns="http://www.w3.org/2000/svg">
<ellipse cx="18" cy="18.9495" rx="18" ry="17.9708" fill="#D9D9D9"/>
<path d="M23.06 20.9471C21.2 20.9471 19.64 22.2748 19.24 24.0418C18.29 23.6325 17.42 23.7423 16.76 24.0318C16.35 22.2549 14.79 20.9471 12.94 20.9471C10.77 20.9471 9 22.734 9 24.9402C9 27.1464 10.77 28.9333 12.94 28.9333C15 28.9333 16.68 27.3161 16.84 25.2596C17.18 25.0201 18.07 24.5708 19.16 25.2796C19.34 27.3261 21 28.9333 23.06 28.9333C25.23 28.9333 27 27.1464 27 24.9402C27 22.734 25.23 20.9471 23.06 20.9471ZM12.94 27.7952C11.38 27.7952 10.13 26.5175 10.13 24.9402C10.13 23.3629 11.39 22.0851 12.94 22.0851C14.5 22.0851 15.75 23.3629 15.75 24.9402C15.75 26.5175 14.5 27.7952 12.94 27.7952ZM23.06 27.7952C21.5 27.7952 20.25 26.5175 20.25 24.9402C20.25 23.3629 21.5 22.0851 23.06 22.0851C24.62 22.0851 25.88 23.3629 25.88 24.9402C25.88 26.5175 24.61 27.7952 23.06 27.7952ZM28 18.4515H8V19.9489H28V18.4515ZM21.53 10.5951C21.31 10.1059 20.75 9.84638 20.22 10.0161L18 10.7548L15.77 10.0161L15.72 10.0061C15.19 9.85637 14.63 10.1359 14.43 10.645L12 16.9541H24L21.56 10.645L21.53 10.5951Z" fill="black"/>
</svg>
